/* XPM */
static char *xpm[] = {
"32 32 4 1",
"  c #452620",
"! c #5a332c",
"# c #663931",
"$ c #673026",
"                                ",
"                                ",
"  !!!!!!!!!!!!!!!!!!  !!!!!!!!  ",
"  !!!!!!!!!!!!!!!!!!  !!!!!!!!  ",
"  ##################  ########  ",
"  ##################  ########  ",
"  ##################  ########  ",
"  ##################  ########  ",
"  $$$$$$$$$$$$$$$$$$  $$$$$$$$  ",
"  $$$$$$$$$$$$$$$$$$  $$$$$$$$  ",
"                                ",
"                                ",
"  !!!!!!!!  !!!!!!!!!!!!!!!!!!  ",
"  !!!!!!!!  !!!!!!!!!!!!!!!!!!  ",
"  ########  ##################  ",
"  ########  ##################  ",
"  ########  ##################  ",
"  ########  ##################  ",
"  $$$$$$$$  $$$$$$$$$$$$$$$$$$  ",
"  $$$$$$$$  $$$$$$$$$$$$$$$$$$  ",
"                                ",
"                                ",
"  !!!!!!!!!!!!!!!!!!  !!!!!!!!  ",
"  !!!!!!!!!!!!!!!!!!  !!!!!!!!  ",
"  ##################  ########  ",
"  ##################  ########  ",
"  ##################  ########  ",
"  ##################  ########  ",
"  $$$$$$$$$$$$$$$$$$  $$$$$$$$  ",
"  $$$$$$$$$$$$$$$$$$  $$$$$$$$  ",
"                                ",
"                                "
};