/* XPM */
static char *xpm[] = {
"32 32 4 1",
"  c #6b423a",
"! c #7c781e",
"# c #eae69b",
"$ c #d6ce35",
"                                ",
"                                ",
"                                ",
"                                ",
"                                ",
"                                ",
"                                ",
"                                ",
"                                ",
"                                ",
"          !!!!!!!!!!!!          ",
"          !!!!!!!!!!!!          ",
"          !!####$$$$!!          ",
"          !!####$$$$!!          ",
"          !!##$$$$$$!!          ",
"          !!##$$$$$$!!          ",
"          !!$$$$$$$$!!          ",
"          !!$$$$$$$$!!          ",
"          !!$$$$$$##!!          ",
"          !!$$$$$$##!!          ",
"          !!!!!!!!!!!!          ",
"          !!!!!!!!!!!!          ",
"                                ",
"                                ",
"                                ",
"                                ",
"                                ",
"                                ",
"                                ",
"                                ",
"                                ",
"                                "
};