/* XPM */
static char *xpm[] = {
"32 32 3 1",
"  c #2d5313",
"! c #6b423a",
"# c #59a524",
"      !!!!!!!!!!!!!!!!!!!!      ",
"      !!!!!!!!!!!!!!!!!!!!      ",
"    !!!!!!!!!!!!!!!!!!!!!!!!    ",
"    !!!!!!!!!!!!!!!!!!!!!!!!    ",
"  !!!!!!!!!!!!    !!!!!!!!!!!!  ",
"  !!!!!!!!!!!!    !!!!!!!!!!!!  ",
"!!!!!!!!!!!!  ####  !!!!!!!!!!!!",
"!!!!!!!!!!!!  ####  !!!!!!!!!!!!",
"!!!!!!!!!!  ########  !!!!!!!!!!",
"!!!!!!!!!!  ########  !!!!!!!!!!",
"!!!!!!!!  ############  !!!!!!!!",
"!!!!!!!!  ############  !!!!!!!!",
"!!!!!!  ################  !!!!!!",
"!!!!!!  ################  !!!!!!",
"!!!!  ####################  !!!!",
"!!!!  ####################  !!!!",
"!!!!  ####################  !!!!",
"!!!!  ####################  !!!!",
"!!!!!!  ################  !!!!!!",
"!!!!!!  ################  !!!!!!",
"!!!!!!!!  ############  !!!!!!!!",
"!!!!!!!!  ############  !!!!!!!!",
"!!!!!!!!!!  ########  !!!!!!!!!!",
"!!!!!!!!!!  ########  !!!!!!!!!!",
"!!!!!!!!!!!!  ####  !!!!!!!!!!!!",
"!!!!!!!!!!!!  ####  !!!!!!!!!!!!",
"  !!!!!!!!!!!!    !!!!!!!!!!!!  ",
"  !!!!!!!!!!!!    !!!!!!!!!!!!  ",
"    !!!!!!!!!!!!!!!!!!!!!!!!    ",
"    !!!!!!!!!!!!!!!!!!!!!!!!    ",
"      !!!!!!!!!!!!!!!!!!!!      ",
"      !!!!!!!!!!!!!!!!!!!!      "
};