/* XPM */
static char *aaa3297d4a3d4263a7dee0b10a3393f9tMjvci5OvTiGlGdn[] = {
/* columns rows colors chars-per-pixel */
"32 32 19 1 ",
"  c #2E3333",
". c #126666",
"X c #137575",
"o c #4B4D4D",
"O c #495252",
"+ c #696A6A",
"@ c #199494",
"# c #00BDBD",
"$ c #0FBFBF",
"% c #18C7C7",
"& c #17C9C9",
"* c #21D0D0",
"= c #06E5E5",
"- c #49DADA",
"; c #49DDDD",
": c #4BE5E5",
"> c #45EFEF",
", c #70EFEF",
"< c #C2EFEF",
/* pixels */
"  $$  $$            $$          ",
"  $$  $$            $$          ",
"  oo%%oooooooooooooo$$oooooooo  ",
"  oo%%oooooooooooooo$$oooooooo  ",
"  ++++++****......**....++++**  ",
"  ++++++****......**....++++**  ",
"  ++++++++....::::--@@@@..++**  ",
"  ++++++++....::::--@@@@..++**  ",
"  OOOOOO....;;,,,,,,>>@@@@..OO  ",
"  OOOOOO....;;,,,,,,>>@@@@..OO  ",
"      ....;;,,<<<<<<,,>>@@..    ",
"      ....;;,,<<<<<<,,>>@@..    ",
"$$oo....;;,,<<<<,,<<,,;;..oooo  ",
"$$oo....;;,,<<<<,,<<,,;;..oooo  ",
"  ++..@@>>,,<<,,,,<<,,>>@@..++  ",
"  ++..@@>>,,<<,,,,<<,,>>@@..++  ",
"  ++..@@>>,,<<<<,,,,>>##@@..**$$",
"  ++..@@>>,,<<<<,,,,>>##@@..**$$",
"  &&&&..;;,,<<,,<<>>##XX....&&  ",
"  &&&&..;;,,<<,,<<>>##XX....&&  ",
"  $$..@@>>,,<<<<<<,,;;....      ",
"  $$..@@>>,,<<<<<<,,;;....      ",
"  oo..@@==>>,,,,,,;;....oo%%%%  ",
"  oo..@@==>>,,,,,,;;....oo%%%%  ",
"  ++++..@@==--::::....++**++**  ",
"  ++++..@@==--::::....++**++**  ",
"  ++++++....**......  ++++++++$$",
"  ++++++....**......  ++++++++$$",
"  OOOOOOOOOOOOOOOOOO  OO&&OOOO$$",
"  OOOOOOOOOOOOOOOOOO  OO&&OOOO$$",
"            $$                  ",
"            $$                  "
};
