/* XPM */
static char *_ea941e3968543f1fff963f0b950b7f1vhInVpzRJCczMgSn[] = {
/* columns rows colors chars-per-pixel */
"32 32 7 1 ",
"  c #6B423A",
". c #016A80",
"X c #058CA8",
"o c #02B1D6",
"O c #0FC4EA",
"+ c #20D8FF",
"@ c #D3EFF5",
/* pixels */
"                                ",
"                                ",
"                                ",
"                                ",
"                                ",
"                                ",
"                                ",
"           ..........           ",
"         ..OOOOOOOOOO..         ",
"        .@+OOOOOOOOOOO+.        ",
"       .@OOo+++ooooooOO@.       ",
"      .@Ooo+@@++oooooooO+.      ",
"      .+ooo+@@++ooooooooO.      ",
"     .OO++oo+++oooooooooOO.     ",
"     .Oo++oooooooooooooooO.     ",
"     .OooooooooooooooooooO.     ",
"     .OooooooooooooooooooO.     ",
"     .Oooo............oooO.     ",
"     .Oo................o+.     ",
"      .@+...............@.      ",
"       .@+............X@.       ",
"        ..@@+XXXXXXXXX..        ",
"          ............          ",
"                                ",
"                                ",
"                                ",
"                                ",
"                                ",
"                                ",
"                                ",
"                                ",
"                                "
};
